<?xml version="1.0" encoding="UTF-8" standalone="no"?>
<svg
   xmlns:dc="http://purl.org/dc/elements/1.1/"
   xmlns:cc="http://creativecommons.org/ns#"
   xmlns:rdf="http://www.w3.org/1999/02/22-rdf-syntax-ns#"
   xmlns:svg="http://www.w3.org/2000/svg"
   xmlns="http://www.w3.org/2000/svg"
   xmlns:sodipodi="http://sodipodi.sourceforge.net/DTD/sodipodi-0.dtd"
   xmlns:inkscape="http://www.inkscape.org/namespaces/inkscape"
   width="210mm"
   height="210mm"
   viewBox="0 0 210 210"
   version="1.1"
   id="svg8"
   sodipodi:docname="xfce4-power-timer.svg"
   inkscape:export-filename="/home/sergii/dev/power-timer/icons/scalable/xfce4-power-timer.png"
   inkscape:export-xdpi="96"
   inkscape:export-ydpi="96"
   inkscape:version="1.0.2 (e86c870879, 2021-01-15)">
  <defs
     id="defs2" />
  <sodipodi:namedview
     id="base"
     pagecolor="#ffffff"
     bordercolor="#666666"
     borderopacity="1.0"
     inkscape:pageopacity="0.0"
     inkscape:pageshadow="2"
     inkscape:zoom="0.58812899"
     inkscape:cx="374.79443"
     inkscape:cy="571.32287"
     inkscape:document-units="mm"
     inkscape:current-layer="layer1"
     inkscape:document-rotation="0"
     showgrid="false"
     inkscape:window-width="1792"
     inkscape:window-height="1040"
     inkscape:window-x="107"
     inkscape:window-y="40"
     inkscape:window-maximized="0"
     inkscape:pagecheckerboard="true"
     showguides="true"
     inkscape:guide-bbox="true"
     inkscape:snap-nodes="false">
    <sodipodi:guide
       position="100.27568,194.01798"
       orientation="1,0"
       id="guide2169" />
  </sodipodi:namedview>
  <metadata
     id="metadata5">
    <rdf:RDF>
      <cc:Work
         rdf:about="">
        <dc:format>image/svg+xml</dc:format>
        <dc:type
           rdf:resource="http://purl.org/dc/dcmitype/StillImage" />
        <dc:title></dc:title>
      </cc:Work>
    </rdf:RDF>
  </metadata>
  <g
     inkscape:label="Layer 1"
     inkscape:groupmode="layer"
     id="layer1">
    <path
       id="path10"
       style="fill:#000000;fill-opacity:1;fill-rule:evenodd;stroke-width:0.940634"
       d="M 302.36133 200.00586 A 264.56693 264.56693 0 0 0 113.38672 453.54297 A 264.56693 264.56693 0 0 0 377.95312 718.11133 A 264.56693 264.56693 0 0 0 642.51953 453.54297 A 264.56693 264.56693 0 0 0 453.54297 200.00586 L 453.54297 280.34375 A 188.97638 188.97638 0 0 1 566.92969 453.54297 A 188.97638 188.97638 0 0 1 377.95312 642.51953 A 188.97638 188.97638 0 0 1 188.97656 453.54297 A 188.97638 188.97638 0 0 1 302.36133 280.3457 L 302.36133 200.00586 z "
       transform="scale(0.26458333)" />
    <path
       style="fill:#000000;fill-opacity:1;stroke-width:0.313479"
       id="rect837"
       width="20"
       height="57.72551"
       x="90"
       y="25"
       sodipodi:type="rect"
       ry="7.1237159"
       d="m 97.123716,25 h 5.752564 C 106.82282,25 110,28.177177 110,32.123716 v 43.478078 c 0,3.946538 -3.17718,7.123716 -7.12372,7.123716 H 97.123716 C 93.177177,82.72551 90,79.548332 90,75.601794 V 32.123716 C 90,28.177177 93.177177,25 97.123716,25 Z" />
    <circle
       style="opacity:1;fill:#000000;fill-opacity:1;stroke-width:0.405536"
       id="path2167"
       cx="99.357735"
       cy="119.85282"
       r="14.357738" />
    <path
       style="fill:#000000;fill-opacity:1;stroke-width:0.221145"
       id="rect837-3"
       width="11.641103"
       height="49.356041"
       x="1.3676286"
       y="-156.56189"
       sodipodi:type="rect"
       ry="6.0908675"
       d="m 7.18818,-156.56189 c 3.224585,0 5.820551,2.71653 5.820551,6.09087 v 37.1743 c 0,3.37434 -2.595966,6.09087 -5.820551,6.09087 -3.2245855,0 -5.8205514,-2.71653 -5.8205514,-6.09087 v -37.1743 c 0,-3.37434 2.5959659,-6.09087 5.8205514,-6.09087 z"
       inkscape:transform-center-x="16.705817"
       inkscape:transform-center-y="-17.96851"
       transform="rotate(138.00223)" />
    <path
       style="fill:#000000;fill-opacity:1;stroke-width:0.150944"
       id="rect837-3-0"
       width="8"
       height="33.459591"
       x="147.9734"
       y="-51.06221"
       sodipodi:type="rect"
       ry="4.1291385"
       d="m 151.9734,-51.06221 c 2.216,0 4,1.841596 4,4.129138 v 25.201314 c 0,2.287543 -1.784,4.129139 -4,4.129139 -2.216,0 -4,-1.841596 -4,-4.129139 v -25.201314 c 0,-2.287542 1.784,-4.129138 4,-4.129138 z"
       inkscape:transform-center-x="-13.715019"
       inkscape:transform-center-y="-8.6186968"
       transform="rotate(56.118407)" />
  </g>
</svg>
